<svg xmlns="http://www.w3.org/2000/svg" viewBox="0 0 240.45 240.45"><defs><style>.a{fill:#216d7f;}.b{fill:#08bdd6;}.c{fill:#24849e;}.d{fill:#32c3e0;}.e{fill:#2591b8;}.f{fill:#33b9ea;}.g{fill:#29abe2;}</style></defs><title>Asset 7</title><path class="a" d="M8.5,0H60.11a0,0,0,0,1,0,0V60.11a0,0,0,0,1,0,0H0a0,0,0,0,1,0,0V8.5A8.5,8.5,0,0,1,8.5,0Z"/><rect class="b" y="60.11" width="60.11" height="60.11"/><rect class="c" x="60.11" width="60.11" height="60.11"/><rect class="d" x="60.11" y="60.11" width="60.11" height="60.11"/><rect class="e" x="120.22" width="60.11" height="60.11"/><rect class="f" x="120.22" y="60.11" width="60.11" height="60.11"/><rect class="d" x="120.22" y="120.22" width="60.11" height="60.11"/><rect class="b" x="120.22" y="180.34" width="60.11" height="60.11"/><path class="g" d="M180.34,0h51.61a8.5,8.5,0,0,1,8.5,8.5V60.11a0,0,0,0,1,0,0H180.34a0,0,0,0,1,0,0V0A0,0,0,0,1,180.34,0Z"/><rect class="e" x="180.34" y="60.11" width="60.11" height="60.11"/><rect class="c" x="180.34" y="120.22" width="60.11" height="60.11"/><path class="a" d="M180.34,180.34h60.11a0,0,0,0,1,0,0v51.61a8.51,8.51,0,0,1-8.51,8.51H180.34a0,0,0,0,1,0,0V180.34A0,0,0,0,1,180.34,180.34Z"/><polyline class="g" points="0 120.22 120.22 120.22 120.22 240.45"/></svg>