<svg xmlns="http://www.w3.org/2000/svg" viewBox="0 0 891.13 257.9"><defs><style>.a{fill:#216d7f;}.b{fill:#08bdd6;}.c{fill:#24849e;}.d{fill:#32c3e0;}.e{fill:#2591b8;}.f{fill:#33b9ea;}.g{fill:#29abe2;}.h{fill:#231f20;}</style></defs><title>Asset 1</title><path class="a" d="M8.5,0H60.11a0,0,0,0,1,0,0V60.11a0,0,0,0,1,0,0H0a0,0,0,0,1,0,0V8.5A8.5,8.5,0,0,1,8.5,0Z"/><rect class="b" y="60.11" width="60.11" height="60.11"/><rect class="c" x="60.11" width="60.11" height="60.11"/><rect class="d" x="60.11" y="60.11" width="60.11" height="60.11"/><rect class="e" x="120.22" width="60.11" height="60.11"/><rect class="f" x="120.22" y="60.11" width="60.11" height="60.11"/><rect class="d" x="120.22" y="120.22" width="60.11" height="60.11"/><rect class="b" x="120.22" y="180.34" width="60.11" height="60.11"/><path class="g" d="M180.34,0h51.61a8.5,8.5,0,0,1,8.5,8.5V60.11a0,0,0,0,1,0,0H180.34a0,0,0,0,1,0,0V0A0,0,0,0,1,180.34,0Z"/><rect class="e" x="180.34" y="60.11" width="60.11" height="60.11"/><rect class="c" x="180.34" y="120.22" width="60.11" height="60.11"/><path class="a" d="M180.34,180.34h60.11a0,0,0,0,1,0,0v51.61a8.51,8.51,0,0,1-8.51,8.51H180.34a0,0,0,0,1,0,0V180.34A0,0,0,0,1,180.34,180.34Z"/><polyline points="0 120.22 120.22 120.22 120.22 240.45"/><path class="h" d="M301.87,24.28q16.58,0,25.78,6.65t9.22,15.5q0,3.57-3.57,3.57h-10q-2.87,0-5-3.57-4.73-7.86-16.43-7.86c-5.53,0-9.64.84-12.36,2.5s-4.07,3.69-4.07,6.07q0,3,4,4.93a34.34,34.34,0,0,0,9.93,2.79q5.92.86,12.86,2.42a119.48,119.48,0,0,1,12.85,3.65A23.35,23.35,0,0,1,335,67.5a16.09,16.09,0,0,1,4,11.07q0,10.43-9.64,17.36t-28.93,6.92q-18.57,0-28.57-7.14t-10-17.14q0-3.57,3.57-3.57h10q3.29,0,5,3.57,5,10,20,10,9.71,0,14.5-3t4.78-7c0-2.29-1.83-4.09-5.5-5.43a79.3,79.3,0,0,0-13.42-3.36Q292.87,68.43,285,66.5a31,31,0,0,1-13.36-6.79,16,16,0,0,1-5.49-12.57q0-9.86,9-16.36T301.87,24.28Z"/><path class="h" d="M391.86,24.28q15.86,0,25.29,7.08t11.14,17.21q0,3.57-3.57,3.57H414c-2.2,0-3.86-1.19-5-3.57q-5-10-17.15-10-10.42,0-16.64,6.29t-6.21,18q0,11.85,6.07,18.78t16.78,6.93q13.14,0,18.57-12.14c1.15-2.38,2.81-3.58,5-3.58h10c2.38,0,3.58,1.2,3.58,3.58q-1.72,11.14-11.36,18.78t-25.79,7.64q-19.14,0-30.64-11.07t-11.5-28.92q0-17.58,11.36-28.08T391.86,24.28Z"/><path class="h" d="M504.71,96.43V55a16.09,16.09,0,0,0-16.42-16.43,28.56,28.56,0,0,0-11.93,2.71,35.87,35.87,0,0,0-8.79,5.29l-2.85,2.71V96.43c0,2.38-1.2,3.57-3.58,3.57H449q-3.57,0-3.57-3.57V3.57Q445.43,0,449,0h12.14c2.38,0,3.58,1.19,3.58,3.57V35h.71l1.14-1.14a33.92,33.92,0,0,1,3.22-2.57A39,39,0,0,1,475,28a33.75,33.75,0,0,1,7.14-2.57,35.94,35.94,0,0,1,9-1.15q14.87,0,23.86,8.58T524,55V96.43a4,4,0,0,1-3.57,3.57H508.29Q504.7,100,504.71,96.43Z"/><path class="h" d="M579.71,102.85Q561,102.85,550,92.07t-11-28.5q0-17.72,11-28.5t29.71-10.79q18.57,0,29.64,10.5t11.07,27.36v4.29q0,3.57-3.57,3.57h-58a19.94,19.94,0,0,0,6.57,13.14,20.26,20.26,0,0,0,14.29,5.43q12.13,0,17.86-8.57,2.41-3.57,5-3.57h10.71A3.43,3.43,0,0,1,616.85,80Q615,89.57,605.57,96.21T579.71,102.85Zm13.57-59.14a20.48,20.48,0,0,0-27.14,0q-5.86,5.15-6.43,11.29h40Q599.14,48.86,593.28,43.71Z"/><path class="h" d="M712.56,3.57V96.43q0,3.57-3.57,3.57H696.85q-3.57,0-3.57-3.57V92.14h-.72c-.66.76-1.59,1.74-2.78,2.93s-3.84,2.78-7.93,4.78a28.93,28.93,0,0,1-12.86,3q-16.71,0-26.92-10.64T631.85,63.57q0-17.57,10.72-28.43t27.85-10.86A46.48,46.48,0,0,1,682,25.71a37.2,37.2,0,0,1,8.15,2.86L692.56,30h.72V3.57q0-3.57,3.57-3.57H709Q712.56,0,712.56,3.57ZM693.28,77V45c-.67-.48-1.57-1.07-2.71-1.79a40.46,40.46,0,0,0-6.93-2.85,31.86,31.86,0,0,0-10.36-1.79q-9.85,0-16,6.71t-6.14,18.29q0,11.57,5.43,17.57t15.28,6a23,23,0,0,0,6.86-1.07,27.89,27.89,0,0,0,5.93-2.57c1.66-1,3.19-2,4.57-2.93A17,17,0,0,0,692.28,78Z"/><path class="h" d="M753.28,30.71V72.14A16.09,16.09,0,0,0,769.7,88.57a29.33,29.33,0,0,0,14.22-3.79c1.85-1.09,3.5-2.16,4.93-3.21a30.24,30.24,0,0,0,3.28-2.71l1.14-1V30.71c0-2.38,1.2-3.57,3.58-3.57H809q3.57,0,3.57,3.57V96.43q0,3.57-3.57,3.57H796.85c-2.38,0-3.58-1.19-3.58-3.57V92.14h-.71l-1.14,1.14a33.92,33.92,0,0,1-3.22,2.57A39,39,0,0,1,783,99.14a33.75,33.75,0,0,1-7.14,2.57,36,36,0,0,1-9,1.14q-14.86,0-23.86-8.57t-9-22.14V30.71a3.95,3.95,0,0,1,3.57-3.57H749.7C752.08,27.14,753.28,28.33,753.28,30.71Z"/><path class="h" d="M853.27,3.57V96.43q0,3.57-3.57,3.57H837.56c-2.39,0-3.57-1.19-3.57-3.57V3.57C834,1.19,835.17,0,837.56,0H849.7Q853.27,0,853.27,3.57Z"/><path class="h" d="M871.84,95V86.43a4.87,4.87,0,0,1,5-5h9.29a4.87,4.87,0,0,1,5,5V95a4.89,4.89,0,0,1-5,5h-9.29a4.89,4.89,0,0,1-5-5Z"/><path class="g" d="M267.58,127.19h7.86q5.71,0,5.71,5.72v9.28q0,5.72-5.71,5.71h-7.86q-5.71,0-5.71-5.71v-9.28Q261.87,127.2,267.58,127.19Zm13.57,34.29v65.71q0,3.57-3.57,3.57H265.44q-3.57,0-3.57-3.57V161.48c0-2.38,1.19-3.58,3.57-3.58h12.14C280,157.9,281.15,159.1,281.15,161.48Z"/><path class="g" d="M361.15,227.19V185.76a16.11,16.11,0,0,0-16.43-16.43,28.42,28.42,0,0,0-11.93,2.72,35.6,35.6,0,0,0-8.78,5.28l-2.86,2.72v47.14q0,3.57-3.57,3.57H305.44q-3.57,0-3.57-3.57V161.48c0-2.38,1.19-3.58,3.57-3.58h12.14c2.38,0,3.57,1.2,3.57,3.58v4.28h.71l1.15-1.14a35,35,0,0,1,3.21-2.57,39.72,39.72,0,0,1,5.22-3.29,33.55,33.55,0,0,1,7.14-2.57,35.93,35.93,0,0,1,9-1.14q14.85,0,23.86,8.57t9,22.14v41.43a3.45,3.45,0,0,1-1.14,2.43,3.41,3.41,0,0,1-2.43,1.14H364.72Q361.15,230.76,361.15,227.19Z"/><path class="g" d="M476.15,167.19v57.14a30.5,30.5,0,0,1-11,24q-11,9.57-29.72,9.57-16.28,0-26.35-6.5T399,236.47q0-3.57,3.57-3.57h10q3,0,5.71,3.57,5.43,7.14,17.14,7.15,9.44,0,15.43-5.58a18,18,0,0,0,6-13.71v-2.14h-.71l-2.79,1.57a40.2,40.2,0,0,1-7.57,2.57A44.7,44.7,0,0,1,434,227.9q-16.86,0-27.72-10.28a33.63,33.63,0,0,1-10.85-25.43q0-16.58,11.64-26.86t32.64-10.28a73.72,73.72,0,0,1,15.71,1.85,98.77,98.77,0,0,1,12.22,3.29q3.78,1.42,4.93,2A4.78,4.78,0,0,1,476.15,167.19Zm-19.29,40V172.9a41.58,41.58,0,0,0-17.14-3.57q-11.58,0-18.29,6.22t-6.71,16.64A20.46,20.46,0,0,0,421,207.47a21.72,21.72,0,0,0,15.85,6.15,32.65,32.65,0,0,0,9.72-1.57,34.1,34.1,0,0,0,7.71-3.29Z"/></svg>